<svg width="51" height="44" viewBox="0 0 51 44" fill="none" xmlns="http://www.w3.org/2000/svg">
<path d="M40.6154 34.5714C37.7977 34.5714 35.5385 36.4945 35.5385 38.8929C35.5385 40.039 36.0733 41.1381 37.0255 41.9486C37.9776 42.759 39.2689 43.2143 40.6154 43.2143C41.9619 43.2143 43.2532 42.759 44.2053 41.9486C45.1574 41.1381 45.6923 40.039 45.6923 38.8929C45.6923 36.4945 43.4077 34.5714 40.6154 34.5714ZM0 0V4.32143H5.07692L14.2154 20.7213L10.7631 26.015C10.3823 26.62 10.1538 27.333 10.1538 28.0893C10.1538 29.2354 10.6887 30.3346 11.6408 31.145C12.5929 31.9554 13.8843 32.4107 15.2308 32.4107H45.6923V28.0893H16.2969C16.1286 28.0893 15.9672 28.0324 15.8482 27.9311C15.7292 27.8298 15.6623 27.6924 15.6623 27.5491C15.6623 27.4411 15.6877 27.3546 15.7385 27.2898L18.0231 23.7679H36.9346C38.8385 23.7679 40.5138 22.8604 41.3769 21.5423L50.4646 7.5625C50.6423 7.21679 50.7692 6.84946 50.7692 6.48214C50.7692 5.90909 50.5018 5.3595 50.0257 4.95429C49.5497 4.54908 48.904 4.32143 48.2308 4.32143H10.6869L8.30077 0M15.2308 34.5714C12.4131 34.5714 10.1538 36.4945 10.1538 38.8929C10.1538 40.039 10.6887 41.1381 11.6408 41.9486C12.5929 42.759 13.8843 43.2143 15.2308 43.2143C16.5773 43.2143 17.8686 42.759 18.8207 41.9486C19.7728 41.1381 20.3077 40.039 20.3077 38.8929C20.3077 36.4945 18.0231 34.5714 15.2308 34.5714Z" fill="#EFD973"/>
</svg>
