<svg width="125" height="125" viewBox="0 0 125 125" fill="none" xmlns="http://www.w3.org/2000/svg">
<path d="M81.0644 42.6829L68.0693 29.878L55.0743 42.6829L46.4109 34.1463L59.4059 21.3415L46.4109 8.53659L55.0743 0L68.0693 12.8049L81.0644 0L89.7277 8.53659L76.7327 21.3415L89.7277 34.1463L81.0644 42.6829ZM37.1287 100.61C43.9356 100.61 49.5049 106.098 49.5049 112.805C49.5049 119.512 43.9356 125 37.1287 125C30.3218 125 24.7525 119.512 24.7525 112.805C24.7525 106.098 30.3218 100.61 37.1287 100.61ZM99.0099 100.61C105.817 100.61 111.386 106.098 111.386 112.805C111.386 119.512 105.817 125 99.0099 125C92.203 125 86.6337 119.512 86.6337 112.805C86.6337 106.098 92.203 100.61 99.0099 100.61ZM38.3663 81.0976C38.3663 81.7073 38.9851 82.3171 39.604 82.3171H111.386V94.5122H37.1287C30.3218 94.5122 24.7525 89.0244 24.7525 82.3171C24.7525 79.878 25.3713 78.0488 25.9901 76.2195L34.0347 61.5854L12.3762 15.2439H0V3.04878H20.4208L47.0297 57.9268H90.3465L114.48 15.2439L125 21.3415L100.866 64.0244C99.0099 67.6829 94.6782 70.1219 90.3465 70.1219H43.9356L38.3663 79.8781V81.0976Z" fill="white"/>
</svg>
