<svg width="101" height="100" viewBox="0 0 101 100" fill="none" xmlns="http://www.w3.org/2000/svg">
<path d="M50.934 0C23.4341 0 0.934082 22.5402 0.934082 50.3012C0.934082 75.4016 19.2341 96.2349 43.134 100V64.8594H30.434V50.3012H43.134V39.2068C43.134 26.6064 50.584 19.6787 62.034 19.6787C67.484 19.6787 73.184 20.6325 73.184 20.6325V33.0321H66.884C60.684 33.0321 58.734 36.8976 58.734 40.8635V50.3012H72.634L70.384 64.8594H58.734V100C70.5162 98.1317 81.245 92.096 88.9836 82.9822C96.7222 73.8685 100.961 62.2773 100.934 50.3012C100.934 22.5402 78.434 0 50.934 0Z" fill="#0111FF"/>
</svg>
