<svg width="73" height="72" viewBox="0 0 73 72" fill="none" xmlns="http://www.w3.org/2000/svg">
<path d="M36.2255 0C16.5353 0 0.425171 16.1389 0.425171 36.016C0.425171 53.9881 13.5281 68.9049 30.6406 71.6007V46.4398H21.5473V36.016H30.6406V28.0724C30.6406 19.0504 35.9749 14.0901 44.1731 14.0901C48.0754 14.0901 52.1566 14.773 52.1566 14.773V23.6512H47.6458C43.2065 23.6512 41.8103 26.4189 41.8103 29.2585V36.016H51.7628L50.1518 46.4398H41.8103V71.6007C50.2464 70.263 57.9283 65.9413 63.4692 59.4159C69.0101 52.8904 72.0449 44.591 72.0258 36.016C72.0258 16.1389 55.9156 0 36.2255 0Z" fill="white"/>
</svg>
