<svg width="101" height="100" viewBox="0 0 101 100" fill="none" xmlns="http://www.w3.org/2000/svg">
<path d="M29.9341 0.5H71.9341C87.6579 0.5 100.434 13.2761 100.434 29V71C100.434 78.5587 97.4314 85.8078 92.0866 91.1525C86.7418 96.4973 79.4928 99.5 71.9341 99.5H29.9341C14.2102 99.5 1.43408 86.7239 1.43408 71V29C1.43408 21.4413 4.43675 14.1922 9.78154 8.84746C15.1263 3.50267 22.3754 0.5 29.9341 0.5ZM28.9341 9.5C24.0276 9.5 19.322 11.4491 15.8526 14.9185C12.3832 18.3879 10.4341 23.0935 10.4341 28V72C10.4341 82.2261 18.7079 90.5 28.9341 90.5H72.9341C77.8406 90.5 82.5461 88.5509 86.0156 85.0815C89.485 81.6121 91.4341 76.9065 91.4341 72V28C91.4341 17.7739 83.1602 9.5 72.9341 9.5H28.9341ZM77.1841 18C78.7091 18 80.1716 18.6058 81.2499 19.6841C82.3283 20.7625 82.9341 22.225 82.9341 23.75C82.9341 25.275 82.3283 26.7375 81.2499 27.8159C80.1716 28.8942 78.7091 29.5 77.1841 29.5C75.6591 29.5 74.1965 28.8942 73.1182 27.8159C72.0399 26.7375 71.4341 25.275 71.4341 23.75C71.4341 22.225 72.0399 20.7625 73.1182 19.6841C74.1965 18.6058 75.6591 18 77.1841 18ZM50.9341 25.5C57.4319 25.5 63.6636 28.0812 68.2582 32.6759C72.8528 37.2705 75.4341 43.5022 75.4341 50C75.4341 56.4978 72.8528 62.7295 68.2582 67.3241C63.6636 71.9188 57.4319 74.5 50.9341 74.5C44.4363 74.5 38.2046 71.9188 33.61 67.3241C29.0153 62.7295 26.4341 56.4978 26.4341 50C26.4341 43.5022 29.0153 37.2705 33.61 32.6759C38.2046 28.0812 44.4363 25.5 50.9341 25.5ZM50.9341 34.5C46.8232 34.5 42.8807 36.133 39.9739 39.0398C37.0671 41.9467 35.4341 45.8891 35.4341 50C35.4341 54.1109 37.0671 58.0533 39.9739 60.9602C42.8807 63.867 46.8232 65.5 50.9341 65.5C55.0449 65.5 58.9874 63.867 61.8942 60.9602C64.8011 58.0533 66.4341 54.1109 66.4341 50C66.4341 45.8891 64.8011 41.9467 61.8942 39.0398C58.9874 36.133 55.0449 34.5 50.9341 34.5Z" fill="#0D103C" stroke="#0D103C"/>
</svg>
