<svg width="72" height="72" viewBox="0 0 72 72" fill="none" xmlns="http://www.w3.org/2000/svg">
<path d="M20.7642 0.358003H50.8365C62.0949 0.358003 71.2427 9.50581 71.2427 20.7642V50.8365C71.2427 56.2486 69.0928 61.4389 65.2659 65.2659C61.4389 69.0928 56.2486 71.2427 50.8365 71.2427H20.7642C9.50581 71.2427 0.358003 62.0949 0.358003 50.8365V20.7642C0.358003 15.3521 2.50794 10.1617 6.33484 6.33484C10.1617 2.50794 15.3521 0.358003 20.7642 0.358003ZM20.0482 6.80206C16.5351 6.80206 13.1659 8.19763 10.6818 10.6818C8.19763 13.1659 6.80206 16.5351 6.80206 20.0482V51.5525C6.80206 58.8745 12.7262 64.7986 20.0482 64.7986H51.5525C55.0656 64.7986 58.4348 63.4031 60.9189 60.9189C63.4031 58.4348 64.7986 55.0656 64.7986 51.5525V20.0482C64.7986 12.7262 58.8745 6.80206 51.5525 6.80206H20.0482ZM54.5955 12.8881C55.6874 12.8881 56.7346 13.3219 57.5067 14.094C58.2788 14.8661 58.7126 15.9133 58.7126 17.0052C58.7126 18.0971 58.2788 19.1443 57.5067 19.9163C56.7346 20.6884 55.6874 21.1222 54.5955 21.1222C53.5036 21.1222 52.4564 20.6884 51.6843 19.9163C50.9122 19.1443 50.4785 18.0971 50.4785 17.0052C50.4785 15.9133 50.9122 14.8661 51.6843 14.094C52.4564 13.3219 53.5036 12.8881 54.5955 12.8881ZM35.8003 18.2582C40.4528 18.2582 44.9147 20.1064 48.2045 23.3962C51.4943 26.686 53.3425 31.1479 53.3425 35.8003C53.3425 40.4528 51.4943 44.9147 48.2045 48.2045C44.9147 51.4943 40.4528 53.3425 35.8003 53.3425C31.1479 53.3425 26.686 51.4943 23.3962 48.2045C20.1064 44.9147 18.2582 40.4528 18.2582 35.8003C18.2582 31.1479 20.1064 26.686 23.3962 23.3962C26.686 20.1064 31.1479 18.2582 35.8003 18.2582ZM35.8003 24.7022C32.8569 24.7022 30.0341 25.8715 27.9528 27.9528C25.8715 30.0341 24.7022 32.8569 24.7022 35.8003C24.7022 38.7437 25.8715 41.5666 27.9528 43.6479C30.0341 45.7292 32.8569 46.8984 35.8003 46.8984C38.7437 46.8984 41.5666 45.7292 43.6479 43.6479C45.7292 41.5666 46.8984 38.7437 46.8984 35.8003C46.8984 32.8569 45.7292 30.0341 43.6479 27.9528C41.5666 25.8715 38.7437 24.7022 35.8003 24.7022Z" fill="#E5E6FA" stroke="#0D103C" stroke-width="0.716007"/>
</svg>
