<svg width="50" height="65" viewBox="0 0 50 65" fill="none" xmlns="http://www.w3.org/2000/svg">
<path d="M25 30.875C22.632 30.875 20.361 30.019 18.6865 28.4952C17.0121 26.9715 16.0714 24.9049 16.0714 22.75C16.0714 20.5951 17.0121 18.5285 18.6865 17.0048C20.361 15.481 22.632 14.625 25 14.625C27.368 14.625 29.639 15.481 31.3135 17.0048C32.9879 18.5285 33.9286 20.5951 33.9286 22.75C33.9286 23.817 33.6976 24.8735 33.2489 25.8593C32.8002 26.8451 32.1425 27.7408 31.3135 28.4952C30.4844 29.2497 29.5001 29.8482 28.4168 30.2565C27.3336 30.6648 26.1725 30.875 25 30.875ZM25 0C18.3696 0 12.0107 2.39687 7.32233 6.66332C2.63392 10.9298 0 16.7163 0 22.75C0 39.8125 25 65 25 65C25 65 50 39.8125 50 22.75C50 16.7163 47.3661 10.9298 42.6777 6.66332C37.9893 2.39687 31.6304 0 25 0Z" fill="black"/>
</svg>
