<svg width="101" height="100" viewBox="0 0 101 100" fill="none" xmlns="http://www.w3.org/2000/svg">
<path d="M36.1341 97.7C40.9341 99.15 45.7841 100 50.9341 100C64.1949 100 76.9126 94.7322 86.2894 85.3553C95.6662 75.9785 100.934 63.2608 100.934 50C100.934 43.4339 99.6408 36.9321 97.1281 30.8658C94.6153 24.7995 90.9324 19.2876 86.2894 14.6447C81.6465 10.0017 76.1345 6.31876 70.0683 3.80602C64.002 1.29329 57.5002 0 50.9341 0C44.368 0 37.8662 1.29329 31.7999 3.80602C25.7336 6.31876 20.2217 10.0017 15.5787 14.6447C6.20192 24.0215 0.934082 36.7392 0.934082 50C0.934082 71.25 14.2841 89.5 33.1341 96.7C32.6841 92.8 32.2341 86.35 33.1341 81.9L38.8841 57.2C38.8841 57.2 37.4341 54.3 37.4341 49.7C37.4341 42.8 41.7341 37.65 46.6341 37.65C50.9341 37.65 52.9341 40.8 52.9341 44.85C52.9341 49.15 50.0841 55.3 48.6341 61.2C47.7841 66.1 51.2341 70.4 56.2341 70.4C65.1341 70.4 72.0341 60.9 72.0341 47.5C72.0341 35.5 63.4341 27.3 51.0841 27.3C36.9841 27.3 28.6841 37.8 28.6841 48.85C28.6841 53.15 30.0841 57.5 32.3841 60.35C32.8341 60.65 32.8341 61.05 32.6841 61.8L31.2341 67.25C31.2341 68.1 30.6841 68.4 29.8341 67.8C23.4341 65 19.7341 55.9 19.7341 48.55C19.7341 32.75 30.9341 18.4 52.5341 18.4C69.7341 18.4 83.1341 30.75 83.1341 47.15C83.1341 64.35 72.4841 78.15 57.2341 78.15C52.3841 78.15 47.6341 75.55 45.9341 72.5L42.5841 84.35C41.4341 88.65 38.2841 94.4 36.1341 97.85V97.7Z" fill="#FF0000"/>
</svg>
