<svg width="73" height="72" viewBox="0 0 73 72" fill="none" xmlns="http://www.w3.org/2000/svg">
<path d="M26.0537 69.9539C29.4905 70.9921 32.9631 71.6007 36.6506 71.6007C46.1454 71.6007 55.2514 67.8289 61.9652 61.115C68.6791 54.4011 72.4509 45.2952 72.4509 35.8003C72.4509 31.099 71.5249 26.4436 69.7258 22.1001C67.9266 17.7566 65.2896 13.81 61.9652 10.4857C58.6409 7.16131 54.6943 4.52427 50.3508 2.72514C46.0073 0.926003 41.3519 0 36.6506 0C31.9492 0 27.2939 0.926003 22.9504 2.72514C18.6069 4.52427 14.6603 7.16131 11.3359 10.4857C4.62203 17.1995 0.85022 26.3055 0.85022 35.8003C0.85022 51.0155 10.4089 64.0826 23.9056 69.2379C23.5834 66.4454 23.2612 61.8272 23.9056 58.641L28.0227 40.9556C28.0227 40.9556 26.9845 38.8792 26.9845 35.5855C26.9845 30.6451 30.0633 26.9577 33.5717 26.9577C36.6506 26.9577 38.0826 29.2131 38.0826 32.1129C38.0826 35.1917 36.042 39.5952 35.0037 43.8196C34.3951 47.3281 36.8654 50.4069 40.4454 50.4069C46.8179 50.4069 51.7583 43.6048 51.7583 34.0103C51.7583 25.4182 45.6006 19.547 36.758 19.547C26.6623 19.547 20.7194 27.0651 20.7194 34.9769C20.7194 38.0558 21.7218 41.1704 23.3686 43.211C23.6908 43.4258 23.6908 43.7122 23.5834 44.2492L22.5452 48.1515C22.5452 48.7601 22.1514 48.9749 21.5428 48.5453C16.9604 46.5404 14.3111 40.0248 14.3111 34.7621C14.3111 23.4492 22.3304 13.1745 37.7962 13.1745C50.1115 13.1745 59.706 22.0172 59.706 33.7597C59.706 46.075 52.0805 55.9559 41.1614 55.9559C37.6888 55.9559 34.2877 54.0943 33.0705 51.9105L30.6719 60.3952C29.8485 63.474 27.5931 67.591 26.0537 70.0613V69.9539Z" fill="white"/>
</svg>
