<svg width="69" height="49" viewBox="0 0 69 49" fill="none" xmlns="http://www.w3.org/2000/svg">
<path d="M27.7581 34.8244L45.5953 24.5139L27.7581 14.2034V34.8244ZM67.4879 7.91398C67.9347 9.52929 68.244 11.6945 68.4502 14.444C68.6908 17.1934 68.7939 19.5648 68.7939 21.6269L69.0001 24.5139C69.0001 32.0405 68.4502 37.5738 67.4879 41.1138C66.6287 44.2069 64.6353 46.2003 61.5422 47.0595C59.9268 47.5063 56.9712 47.8156 52.4346 48.0218C47.9667 48.2624 43.8768 48.3655 40.0963 48.3655L34.6318 48.5717C20.2314 48.5717 11.2613 48.0218 7.72136 47.0595C4.62821 46.2003 2.63484 44.2069 1.77563 41.1138C1.32885 39.4985 1.01953 37.3333 0.813321 34.5838C0.572743 31.8343 0.469638 29.4629 0.469638 27.4008L0.263428 24.5139C0.263428 16.9872 0.813321 11.4539 1.77563 7.91398C2.63484 4.82083 4.62821 2.82747 7.72136 1.96826C9.33667 1.52147 12.2923 1.21216 16.829 1.00595C21.2968 0.765369 25.3867 0.662264 29.1672 0.662264L34.6318 0.456055C49.0321 0.456055 58.0022 1.00595 61.5422 1.96826C64.6353 2.82747 66.6287 4.82083 67.4879 7.91398Z" fill="white"/>
</svg>
