<svg width="97" height="68" viewBox="0 0 97 68" fill="none" xmlns="http://www.w3.org/2000/svg">
<path d="M39.3341 48L64.2461 33.6L39.3341 19.2V48ZM94.8221 10.416C95.4461 12.672 95.8781 15.696 96.1661 19.536C96.5021 23.376 96.6461 26.688 96.6461 29.568L96.9341 33.6C96.9341 44.112 96.1661 51.84 94.8221 56.784C93.6221 61.104 90.8381 63.888 86.5181 65.088C84.2621 65.712 80.1341 66.144 73.7981 66.432C67.5581 66.768 61.8461 66.912 56.5661 66.912L48.9341 67.2C28.8221 67.2 16.2941 66.432 11.3501 65.088C7.03008 63.888 4.24608 61.104 3.04608 56.784C2.42208 54.528 1.99008 51.504 1.70208 47.664C1.36608 43.824 1.22208 40.512 1.22208 37.632L0.934082 33.6C0.934082 23.088 1.70208 15.36 3.04608 10.416C4.24608 6.096 7.03008 3.312 11.3501 2.112C13.6061 1.488 17.7341 1.056 24.0701 0.767999C30.3101 0.431999 36.0221 0.288 41.3021 0.288L48.9341 0C69.0461 0 81.5741 0.768 86.5181 2.112C90.8381 3.312 93.6221 6.096 94.8221 10.416Z" fill="#FF0000"/>
</svg>
